<svg aria-hidden="true" style="position: absolute; width: 0; height: 0; overflow: hidden;" version="1.1" xmlns="http://www.w3.org/2000/svg" xmlns:xlink="http://www.w3.org/1999/xlink">
<defs>
<symbol id="icon-logo" viewBox="0 0 32 32">
<path d="M14.481 30.315c-0.624 0.043-1.162 0.034-1.284-0.016-0.1-0.042 0.116-0.241 0.384-0.437 0.312-0.228 0.028-0.46-0.123-0.578-0.504-0.396-0.984-0.827-1.435-1.286-0.111-0.113-0.373-0.343-0.873-0.336-0.794 0.012-1.799 0.043-1.925-0.010-0.092-0.038 0.437-0.428 0.954-0.795 0.449-0.319 0.267-0.729 0.138-0.917-0.417-0.604-0.791-1.241-1.127-1.905-0.070-0.138-0.281-0.4-0.762-0.407-0.754-0.010-1.61 0.036-1.727-0.012-0.092-0.039 0.573-0.593 1.243-1.084 0.155-0.113 0.4-0.377 0.252-0.911-0.21-0.769-0.444-1.546-0.588-2.353-0.035-0.197-0.223-0.593-0.723-0.582-0.684 0.018-1.375 0.026-1.479-0.017-0.091-0.038 0.593-0.58 1.346-1.074 0.203-0.132 0.524-0.229 0.584-0.921 0.017-0.196-0.014-0.393-0.014-0.591 0-0.666 0.026-1.322 0.113-1.966 0.081-0.597-0.326-0.718-0.55-0.708-0.69 0.031-1.389 0.062-1.491 0.018-0.1-0.042 0.896-0.676 1.858-1.199 0.194-0.103 0.525-0.304 0.706-0.843 0.251-0.745 0.464-1.489 0.777-2.192 0.283-0.635-0.295-0.741-0.588-0.736-0.743 0.012-1.347 0.047-1.466-0.001-0.111-0.047 1.162-0.695 2.349-1.131 0.276-0.102 0.779-0.299 1.251-0.966 0.357-0.502 0.749-0.976 1.119-1.455 0.364-0.47-0.038-0.533-0.279-0.533-0.914 0-1.709 0.063-1.847 0.004-0.128-0.052 1.893-0.74 3.108-1.010 0.265-0.059 0.634-0.145 1.12-0.498 0.414-0.302 0.805-0.625 1.239-0.894 0.384-0.239 0.072-0.288-0.103-0.29-1.009-0.012-1.927 0.065-2.077 0.002-0.145-0.060 2.576-0.495 3.646-0.56 0.94-0.473 2.544-0.859 3.582-1.124-0.269 0-0.496 0.001-0.584 0.007h-6.038c-0.34 0.038-1.793-0.017-2.056 0-0.684 0.065-1.156 0.127-1.812 0.359-0.432 0.154-0.573 0.645-0.279 0.75 0.326 0.116 1.567 0.496 1.415 0.564-0.125 0.055-1.766 0-2.796-0.063-0.41-0.026-0.978-0.058-1.218 0.096-0.61 0.391-0.421 0.306-0.989 0.812-0.226 0.201-0.283 0.634 0.043 0.769 0.313 0.128 1.833 1.025 1.63 1.115-0.174 0.078-2.293 0.209-2.811 0.166-0.513-0.042-0.783-0.016-0.984 0.236-0.497 0.626-0.55 0.848-0.961 1.583-0.163 0.29-0.149 0.812 0.099 0.924 0.248 0.111 1.418 0.603 2.131 1.129-0.805-0.058-2.363 0.231-2.711 0.231s-0.625 0.016-0.748 0.341c-0.313 0.825-0.371 1.137-0.571 2.007-0.078 0.348 0.064 0.702 0.369 0.855s2.614 1.536 2.378 1.525c-0.391-0.020-2.413 0.405-2.718 0.41s-0.504 0.215-0.538 0.57c-0.063 0.663-0.033 0.663-0.033 1.342 0.001 0.244 0.006 0.487 0.014 0.727 0.013 0.353 0.371 0.737 0.705 0.876 0.457 0.192 2.802 1.21 2.593 1.303-0.173 0.076-2.293 0.308-2.51 0.314-0.493 0.014-0.553 0.449-0.496 0.805 0.145 0.892 0.156 1.058 0.418 1.911 0.077 0.256 0.332 0.487 0.593 0.565s3.576 1.273 3.366 1.366c-0.174 0.078-2.161 0.412-2.474 0.425-0.417 0.020-0.373 0.543-0.183 0.923 0.383 0.765 0.203 0.532 0.664 1.213 0.095 0.144 0.521 0.372 0.653 0.396 0.262 0.052 4.032 0.987 3.821 1.079-0.174 0.078-2.189 0.164-2.562 0.182s-0.325 0.512-0.111 0.737c0.542 0.57 0.414 0.474 1 0.924 0.333 0.256 1.109 0.235 1.16 0.27 0.776 0.108 4.040 0.491 3.842 0.58-0.174 0.078-1.378 0.194-2.526 0.315-0.364-0.015-0.071 0.432 0.189 0.545 0.649 0.289 1.321 0.504 1.999 0.64 0.026 0.005 0.050 0.007 0.074 0.007 0.242 0 1.761 0.128 2.028 0.128 0.344 0 5.004 0.022 7.285 0.032-1.329-0.34-3.103-0.857-4.331-1.525-0.103-0.056-0.368-0.182-0.738-0.155z"></path>
<path d="M31.951 14.521c-0.025-0.363-0.237-0.623-0.536-0.599-0.007 0.001-0.014 0.015-0.022 0.016-0.043-0.443-0.096-0.882-0.171-1.314 0.008-0.001 0.014 0 0.020-0.002 0.262-0.095 0.419-0.458 0.348-0.81-0.178-0.881-0.418-1.751-0.708-2.583-0.111-0.334-0.708-0.471-0.708-0.471s-0.281-0.61-0.458-0.985c0.006-0.006 0.014-0.004 0.020-0.009 0.223-0.208 0.28-0.619 0.124-0.918-0.39-0.752-0.834-1.463-1.315-2.116-0.191-0.258-0.91-0.231-0.915-0.222-0.065-0.096-0.293-0.351-0.556-0.628 0.007-0.011 0.015-0.005 0.021-0.016 0.16-0.297 0.107-0.71-0.113-0.922-0.561-0.534-1.156-1.004-1.771-1.399-0.248-0.156-1.323-0.017-1.323-0.017l-0.274-0.123c0.004-0.010 0.011-0.012 0.013-0.020 0.075-0.351-0.078-0.716-0.339-0.816-0.659-0.247-1.337-0.421-2.023-0.513-0.199-0.034-0.911-0.050-1.452-0.053-1.052 0.32-2.065 0.759-3.023 1.311 0.925 0.097-1.166 1.397-1.006 0.635-0.605 0.416-1.18 0.88-1.723 1.39 0.886 0.075-0.762 1.921-1.032 1.066-0.695 0.795-1.319 1.674-1.861 2.63 0.805-0.213-0.166 2.128-0.734 1.468-0.45 1.018-0.808 2.11-1.064 3.27 0.749-0.244 0.396 1.889-0.28 1.583-0.117 0.875-0.178 1.786-0.178 2.726 0 0.196 0.003 0.39 0.008 0.583 0.729-0.271 1.082 1.68 0.113 1.697 0.13 1.175 0.358 2.288 0.673 3.333 0.443-0.385 1.592 1.307 0.561 1.576 0.386 0.933 0.847 1.804 1.374 2.61 0.273-0.462 1.658 1.047 0.868 1.199 0.613 0.768 1.293 1.462 2.023 2.082 0.121-0.439 1.564 0.523 0.999 0.779 1.247 0.889 2.614 1.577 4.054 2.057 0.729 0.002 1.211 0.005 1.211 0.005 0.734-0.023 1.089-0.096 1.394-0.174 0.267-0.069 0.8-0.801 0.8-0.801s0.964-0.041 1.163-0.041c0.060 0 0.12-0.015 0.178-0.044 0.635-0.328 1.255-0.734 1.846-1.206 0.234-0.186 0.309-0.592 0.168-0.905-0.004-0.007-0.011-0.007-0.012-0.015 0.277-0.245 0.333-0.305 0.598-0.581 0.003 0.008 0.451 0.049 0.591 0.049 0.113 0 0.23-0.053 0.32-0.16 0.52-0.597 1.004-1.258 1.439-1.968 0.171-0.282 0.143-0.695-0.067-0.928-0.008-0.009-0.018-0.004-0.025-0.011 0.199-0.357 0.344-0.596 0.524-0.977 0.006 0.006 0.222-0.017 0.305-0.017 0.171 0 0.334-0.121 0.428-0.334 0.34-0.795 0.627-1.636 0.86-2.498 0.092-0.343-0.043-0.721-0.299-0.846-0.004-0.001-0.008 0.002-0.013 0.001 0.099-0.424 0.178-0.856 0.249-1.292 0.007 0.001 0.008 0.011 0.014 0.012 0.029 0.006 0.059 0.008 0.085 0.008 0.238 0 0.446-0.228 0.488-0.548 0.116-0.9 0.175-1.823 0.175-2.743-0.001-0.492-0.018-0.981-0.050-1.462zM20.858 26.17c-3.796 0-6.874-4.552-6.874-10.166 0-5.616 3.077-10.167 6.874-10.167 3.798 0 6.872 4.551 6.872 10.167 0 5.612-3.075 10.166-6.872 10.166z"></path>
</symbol>
<symbol id="icon-call" viewBox="0 0 32 32">
<path d="M19.456 23.419c-0.513-1.056-1.175-1.825-2.319-1.356l-2.256 0.837c-1.806 0.838-2.706 0-3.606-1.256l-4.056-9.238c-0.506-1.056-0.244-2.050 0.9-2.519l3.156-1.256c1.144-0.469 0.963-1.463 0.45-2.519l-2.706-5.037c-0.512-1.056-1.563-1.313-2.706-0.844-2.288 0.95-4.181 2.425-5.406 4.619-1.5 2.681-0.75 6.406-0.45 7.975s1.35 4.312 2.706 7.137c1.356 2.825 2.544 5.044 3.606 6.3s3.606 4.694 6.762 5.456c2.587 0.625 5.375 0.1 7.663-0.844 1.144-0.469 1.15-1.462 0.638-2.525l-2.375-4.931zM25.843 7.381h-3.694l4.925 4.925h-11.075v2.463h11.075l-4.919 4.919h3.694l6.156-6.156-6.162-6.15z"></path>
</symbol>
</defs>
</svg>
