<svg aria-hidden="true" style="position: absolute; width: 0; height: 0; overflow: hidden;" version="1.1" xmlns="http://www.w3.org/2000/svg" xmlns:xlink="http://www.w3.org/1999/xlink">
<defs>
<symbol id="icon-logo" viewBox="0 0 32 32">
<path d="M14.481 30.315c-0.624 0.043-1.162 0.034-1.284-0.016-0.1-0.042 0.116-0.241 0.384-0.437 0.312-0.228 0.028-0.46-0.123-0.578-0.504-0.396-0.984-0.827-1.435-1.286-0.111-0.113-0.373-0.343-0.873-0.336-0.794 0.012-1.799 0.043-1.925-0.010-0.092-0.038 0.437-0.428 0.954-0.795 0.449-0.319 0.267-0.729 0.138-0.917-0.417-0.604-0.791-1.241-1.127-1.905-0.070-0.138-0.281-0.4-0.762-0.407-0.754-0.010-1.61 0.036-1.727-0.012-0.092-0.039 0.573-0.593 1.243-1.084 0.155-0.113 0.4-0.377 0.252-0.911-0.21-0.769-0.444-1.546-0.588-2.353-0.035-0.197-0.223-0.593-0.723-0.582-0.684 0.018-1.375 0.026-1.479-0.017-0.091-0.038 0.593-0.58 1.346-1.074 0.203-0.132 0.524-0.229 0.584-0.921 0.017-0.196-0.014-0.393-0.014-0.591 0-0.666 0.026-1.322 0.113-1.966 0.081-0.597-0.326-0.718-0.55-0.708-0.69 0.031-1.389 0.062-1.491 0.018-0.1-0.042 0.896-0.676 1.858-1.199 0.194-0.103 0.525-0.304 0.706-0.843 0.251-0.745 0.464-1.489 0.777-2.192 0.283-0.635-0.295-0.741-0.588-0.736-0.743 0.012-1.347 0.047-1.466-0.001-0.111-0.047 1.162-0.695 2.349-1.131 0.276-0.102 0.779-0.299 1.251-0.966 0.357-0.502 0.749-0.976 1.119-1.455 0.364-0.47-0.038-0.533-0.279-0.533-0.914 0-1.709 0.063-1.847 0.004-0.128-0.052 1.893-0.74 3.108-1.010 0.265-0.059 0.634-0.145 1.12-0.498 0.414-0.302 0.805-0.625 1.239-0.894 0.384-0.239 0.072-0.288-0.103-0.29-1.009-0.012-1.927 0.065-2.077 0.002-0.145-0.060 2.576-0.495 3.646-0.56 0.94-0.473 2.544-0.859 3.582-1.124-0.269 0-0.496 0.001-0.584 0.007h-6.038c-0.34 0.038-1.793-0.017-2.056 0-0.684 0.065-1.156 0.127-1.812 0.359-0.432 0.154-0.573 0.645-0.279 0.75 0.326 0.116 1.567 0.496 1.415 0.564-0.125 0.055-1.766 0-2.796-0.063-0.41-0.026-0.978-0.058-1.218 0.096-0.61 0.391-0.421 0.306-0.989 0.812-0.226 0.201-0.283 0.634 0.043 0.769 0.313 0.128 1.833 1.025 1.63 1.115-0.174 0.078-2.293 0.209-2.811 0.166-0.513-0.042-0.783-0.016-0.984 0.236-0.497 0.626-0.55 0.848-0.961 1.583-0.163 0.29-0.149 0.812 0.099 0.924 0.248 0.111 1.418 0.603 2.131 1.129-0.805-0.058-2.363 0.231-2.711 0.231s-0.625 0.016-0.748 0.341c-0.313 0.825-0.371 1.137-0.571 2.007-0.078 0.348 0.064 0.702 0.369 0.855s2.614 1.536 2.378 1.525c-0.391-0.020-2.413 0.405-2.718 0.41s-0.504 0.215-0.538 0.57c-0.063 0.663-0.033 0.663-0.033 1.342 0.001 0.244 0.006 0.487 0.014 0.727 0.013 0.353 0.371 0.737 0.705 0.876 0.457 0.192 2.802 1.21 2.593 1.303-0.173 0.076-2.293 0.308-2.51 0.314-0.493 0.014-0.553 0.449-0.496 0.805 0.145 0.892 0.156 1.058 0.418 1.911 0.077 0.256 0.332 0.487 0.593 0.565s3.576 1.273 3.366 1.366c-0.174 0.078-2.161 0.412-2.474 0.425-0.417 0.020-0.373 0.543-0.183 0.923 0.383 0.765 0.203 0.532 0.664 1.213 0.095 0.144 0.521 0.372 0.653 0.396 0.262 0.052 4.032 0.987 3.821 1.079-0.174 0.078-2.189 0.164-2.562 0.182s-0.325 0.512-0.111 0.737c0.542 0.57 0.414 0.474 1 0.924 0.333 0.256 1.109 0.235 1.16 0.27 0.776 0.108 4.040 0.491 3.842 0.58-0.174 0.078-1.378 0.194-2.526 0.315-0.364-0.015-0.071 0.432 0.189 0.545 0.649 0.289 1.321 0.504 1.999 0.64 0.026 0.005 0.050 0.007 0.074 0.007 0.242 0 1.761 0.128 2.028 0.128 0.344 0 5.004 0.022 7.285 0.032-1.329-0.34-3.103-0.857-4.331-1.525-0.103-0.056-0.368-0.182-0.738-0.155z"></path>
<path d="M31.951 14.521c-0.025-0.363-0.237-0.623-0.536-0.599-0.007 0.001-0.014 0.015-0.022 0.016-0.043-0.443-0.096-0.882-0.171-1.314 0.008-0.001 0.014 0 0.020-0.002 0.262-0.095 0.419-0.458 0.348-0.81-0.178-0.881-0.418-1.751-0.708-2.583-0.111-0.334-0.708-0.471-0.708-0.471s-0.281-0.61-0.458-0.985c0.006-0.006 0.014-0.004 0.020-0.009 0.223-0.208 0.28-0.619 0.124-0.918-0.39-0.752-0.834-1.463-1.315-2.116-0.191-0.258-0.91-0.231-0.915-0.222-0.065-0.096-0.293-0.351-0.556-0.628 0.007-0.011 0.015-0.005 0.021-0.016 0.16-0.297 0.107-0.71-0.113-0.922-0.561-0.534-1.156-1.004-1.771-1.399-0.248-0.156-1.323-0.017-1.323-0.017l-0.274-0.123c0.004-0.010 0.011-0.012 0.013-0.020 0.075-0.351-0.078-0.716-0.339-0.816-0.659-0.247-1.337-0.421-2.023-0.513-0.199-0.034-0.911-0.050-1.452-0.053-1.052 0.32-2.065 0.759-3.023 1.311 0.925 0.097-1.166 1.397-1.006 0.635-0.605 0.416-1.18 0.88-1.723 1.39 0.886 0.075-0.762 1.921-1.032 1.066-0.695 0.795-1.319 1.674-1.861 2.63 0.805-0.213-0.166 2.128-0.734 1.468-0.45 1.018-0.808 2.11-1.064 3.27 0.749-0.244 0.396 1.889-0.28 1.583-0.117 0.875-0.178 1.786-0.178 2.726 0 0.196 0.003 0.39 0.008 0.583 0.729-0.271 1.082 1.68 0.113 1.697 0.13 1.175 0.358 2.288 0.673 3.333 0.443-0.385 1.592 1.307 0.561 1.576 0.386 0.933 0.847 1.804 1.374 2.61 0.273-0.462 1.658 1.047 0.868 1.199 0.613 0.768 1.293 1.462 2.023 2.082 0.121-0.439 1.564 0.523 0.999 0.779 1.247 0.889 2.614 1.577 4.054 2.057 0.729 0.002 1.211 0.005 1.211 0.005 0.734-0.023 1.089-0.096 1.394-0.174 0.267-0.069 0.8-0.801 0.8-0.801s0.964-0.041 1.163-0.041c0.060 0 0.12-0.015 0.178-0.044 0.635-0.328 1.255-0.734 1.846-1.206 0.234-0.186 0.309-0.592 0.168-0.905-0.004-0.007-0.011-0.007-0.012-0.015 0.277-0.245 0.333-0.305 0.598-0.581 0.003 0.008 0.451 0.049 0.591 0.049 0.113 0 0.23-0.053 0.32-0.16 0.52-0.597 1.004-1.258 1.439-1.968 0.171-0.282 0.143-0.695-0.067-0.928-0.008-0.009-0.018-0.004-0.025-0.011 0.199-0.357 0.344-0.596 0.524-0.977 0.006 0.006 0.222-0.017 0.305-0.017 0.171 0 0.334-0.121 0.428-0.334 0.34-0.795 0.627-1.636 0.86-2.498 0.092-0.343-0.043-0.721-0.299-0.846-0.004-0.001-0.008 0.002-0.013 0.001 0.099-0.424 0.178-0.856 0.249-1.292 0.007 0.001 0.008 0.011 0.014 0.012 0.029 0.006 0.059 0.008 0.085 0.008 0.238 0 0.446-0.228 0.488-0.548 0.116-0.9 0.175-1.823 0.175-2.743-0.001-0.492-0.018-0.981-0.050-1.462zM20.858 26.17c-3.796 0-6.874-4.552-6.874-10.166 0-5.616 3.077-10.167 6.874-10.167 3.798 0 6.872 4.551 6.872 10.167 0 5.612-3.075 10.166-6.872 10.166z"></path>
</symbol>
<symbol id="icon-call" viewBox="0 0 32 32">
<path d="M19.456 23.419c-0.513-1.056-1.175-1.825-2.319-1.356l-2.256 0.837c-1.806 0.838-2.706 0-3.606-1.256l-4.056-9.238c-0.506-1.056-0.244-2.050 0.9-2.519l3.156-1.256c1.144-0.469 0.963-1.463 0.45-2.519l-2.706-5.037c-0.512-1.056-1.563-1.313-2.706-0.844-2.288 0.95-4.181 2.425-5.406 4.619-1.5 2.681-0.75 6.406-0.45 7.975s1.35 4.312 2.706 7.137c1.356 2.825 2.544 5.044 3.606 6.3s3.606 4.694 6.762 5.456c2.587 0.625 5.375 0.1 7.663-0.844 1.144-0.469 1.15-1.462 0.638-2.525l-2.375-4.931zM25.843 7.381h-3.694l4.925 4.925h-11.075v2.463h11.075l-4.919 4.919h3.694l6.156-6.156-6.162-6.15z"></path>
</symbol>
<symbol id="icon-clock" viewBox="0 0 32 32">
<path d="M31.68 12.805c-0.113-0.553-0.652-0.909-1.206-0.798-0.074 0.015-0.144 0.038-0.209 0.067-0.43 0.19-0.686 0.659-0.588 1.138 1.084 5.324-1.047 10.84-5.429 14.053-2.988 2.19-6.674 3.081-10.38 2.511s-6.954-2.531-9.144-5.518c-4.553-6.212-3.204-14.971 3.008-19.524 2.988-2.19 6.674-3.081 10.38-2.511 3.599 0.554 6.763 2.422 8.949 5.265l-0.94-0.135c-0.559-0.081-1.077 0.307-1.157 0.866s0.307 1.077 0.866 1.157l3.392 0.488c0.022 0.003 0.045 0.003 0.067 0.005 0.027 0.002 0.053 0.006 0.080 0.006 0.5 0 0.937-0.367 1.011-0.877l0.488-3.392c0.080-0.559-0.307-1.077-0.866-1.157s-1.077 0.307-1.157 0.866l-0.138 0.961c-2.508-3.281-6.145-5.436-10.283-6.073-4.246-0.654-8.472 0.37-11.9 2.882s-5.676 6.235-6.33 10.481c-0.654 4.246 0.369 8.472 2.882 11.9s6.235 5.676 10.481 6.33c0.837 0.129 1.673 0.193 2.503 0.193 3.378 0 6.646-1.058 9.398-3.075 5.024-3.683 7.467-10.006 6.224-16.109v0z"></path>
<path d="M21.566 16.382h-3.489c-0.256-0.579-0.721-1.045-1.3-1.3v-7.842c0-0.564-0.458-1.022-1.022-1.022s-1.022 0.458-1.022 1.022v7.842c-0.892 0.394-1.517 1.286-1.517 2.322 0 1.4 1.139 2.539 2.539 2.539 1.036 0 1.928-0.625 2.322-1.517h3.489c0.564 0 1.022-0.458 1.022-1.022s-0.458-1.022-1.022-1.022zM15.26 17.405c0-0.273 0.222-0.495 0.495-0.495s0.495 0.222 0.495 0.495c0 0.273-0.222 0.495-0.495 0.495s-0.495-0.222-0.495-0.495z"></path>
</symbol>
<symbol id="icon-computer" viewBox="0 0 32 32">
<path d="M29.179 0h-26.358c-0.621 0-1.124 0.503-1.124 1.124v21.246c0 0.621 0.503 1.124 1.124 1.124h8.26v2.83c0 0.006 0.001 0.012 0.001 0.019h-3.558c-2.5 0-4.534 2.034-4.534 4.534 0 0.621 0.503 1.124 1.124 1.124h23.772c0.621 0 1.124-0.503 1.124-1.124 0-2.5-2.034-4.534-4.534-4.534h-3.558c0-0.006 0.001-0.012 0.001-0.019v-2.83h8.26c0.621 0 1.124-0.503 1.124-1.124v-21.246c0-0.621-0.503-1.124-1.124-1.124zM26.466 29.752h-20.932c0.393-0.693 1.138-1.161 1.989-1.161h16.953c0.852 0 1.597 0.469 1.989 1.161zM18.672 26.343h-5.344c0-0.006 0.001-0.012 0.001-0.019v-2.83h5.342v2.83c0 0.006 0.001 0.012 0.001 0.019zM28.055 21.246h-24.11v-18.998h24.11v18.998z"></path>
<path d="M9.387 12.829h1.012c0.437 2.265 2.217 4.057 4.476 4.511v0.978c0 0.621 0.503 1.124 1.124 1.124s1.124-0.503 1.124-1.124v-0.978c2.259-0.453 4.039-2.245 4.476-4.511h1.012c0.621 0 1.124-0.503 1.124-1.124s-0.503-1.124-1.124-1.124h-1.028c-0.464-2.226-2.229-3.979-4.46-4.427v-1.062c0-0.621-0.503-1.124-1.124-1.124s-1.124 0.503-1.124 1.124v1.062c-2.231 0.448-3.996 2.201-4.46 4.427h-1.028c-0.621 0-1.124 0.503-1.124 1.124s0.503 1.124 1.124 1.124zM14.914 8.466c0.127 0.481 0.564 0.837 1.086 0.837s0.958-0.355 1.086-0.837c1.018 0.338 1.826 1.136 2.179 2.147-0.494 0.118-0.862 0.562-0.862 1.092 0 0.54 0.381 0.991 0.889 1.099-0.335 1.041-1.152 1.868-2.187 2.218-0.098-0.521-0.555-0.915-1.104-0.915s-1.006 0.394-1.104 0.915c-1.035-0.35-1.852-1.176-2.187-2.218 0.508-0.108 0.888-0.559 0.888-1.099 0-0.531-0.368-0.974-0.862-1.092 0.352-1.011 1.161-1.809 2.179-2.147z"></path>
</symbol>
<symbol id="icon-car" viewBox="0 0 32 32">
<path d="M17.382 4.343c-0.080-0.112-0.257-0.070-0.277 0.067l-0.118 0.78-0.975 0.382-0.819-0.654 0.115-0.762c0.021-0.137-0.138-0.23-0.247-0.144-0.312 0.246-0.535 0.606-0.599 1.030-0.092 0.611 0.171 1.197 0.635 1.542l-0.22 1.454-2.201 1.792-0.695-1.469c-0.534-1.129-1.686-1.859-2.935-1.859-0.078 0-0.123 0-0.149 0-0.022 0-0.029 0-0.029 0-0.163 0-1.138 0-5.957 0-1.584 0-2.902 1.289-2.91 2.873v8.963c-0.003 0.674 0.518 1.223 1.191 1.226 0.002 0 0.004 0 0.006 0 0.671 0 1.246-0.542 1.25-1.214v-8.963c0.001-0.133 0.124-0.241 0.258-0.241s0.241 0.109 0.241 0.242c0 2.977 0.001 19.861 0.001 20.507 0 0.809 0.655 1.464 1.464 1.464s1.464-0.655 1.464-1.464v-11.702h0.632v11.702c0 0.809 0.655 1.464 1.464 1.464s1.464-0.655 1.464-1.464c0 0-0.023-17.268-0.026-20.409-0-0.090 0.062-0.168 0.15-0.187s0.177 0.024 0.215 0.105l1.36 2.877c0.337 0.714 1.258 0.926 1.873 0.425l1.431-1.165c0.092 0.255 0.317 0.453 0.604 0.497 0.417 0.063 0.805-0.224 0.868-0.64l0.182-1.204 0.492-0.4c0.523-0.425 0.601-1.194 0.176-1.716-0.089-0.109-0.193-0.198-0.307-0.268l0.151-0.997c0.537-0.19 0.969-0.667 1.062-1.286 0.066-0.434-0.048-0.854-0.284-1.185z"></path>
<path d="M6.191 0.64c-1.396 0-2.528 1.132-2.528 2.529 0 1.398 1.135 2.528 2.528 2.528 1.396 0 2.528-1.132 2.528-2.529s-1.132-2.529-2.528-2.529z"></path>
<path d="M31.238 14.354h-2.099c-0.421 0-0.762 0.341-0.762 0.762v0.943l-0.157 0.165-1.149-6.162c-0.075-0.402-0.426-0.694-0.835-0.694h-7.861c-0.070 0.701-0.427 1.327-0.949 1.758-0.079 0.16-0.070 0.295-0.070 0.413 0 0.379 0.307 0.687 0.687 0.687h2.192c0.379 0 0.686-0.307 0.686-0.687 0-0.127 0.013-0.284-0.102-0.471h4.712l1.056 5.663h-1.245c-0.136-1.424-1.338-2.542-2.797-2.542s-2.661 1.118-2.797 2.542h-8.058l0.443-2.376c-0.538-0.022-1.037-0.205-1.453-0.517v6.719c0.315-0.479 0.857-0.796 1.473-0.796 0.973 0 1.762 0.789 1.762 1.763s-0.789 1.763-1.762 1.763c-0.616 0-1.158-0.316-1.473-0.796v6.677c0.368 0.43 0.915 0.704 1.526 0.704 1.109 0 2.008-0.899 2.008-2.009v-1.803h1.815v0.681c0 0.38 0.308 0.689 0.689 0.689h4.841c0.38 0 0.689-0.308 0.689-0.689v-0.681h1.815v1.803c0 1.109 0.899 2.009 2.008 2.009s2.009-0.899 2.009-2.009v-1.803h0.391c0.743 0 1.346-0.603 1.346-1.346v-4.319c0-1.076-0.474-2.042-1.223-2.701l0.783-0.825h1.863c0.421 0 0.762-0.341 0.762-0.762v-0.993c-0-0.421-0.341-0.762-0.762-0.762zM21.12 24.667h-3.963c-0.354 0-0.641-0.287-0.641-0.641s0.287-0.641 0.641-0.641h3.963c0.354 0 0.641 0.287 0.641 0.641s-0.287 0.641-0.641 0.641zM22.178 22.224h-6.080c-0.354 0-0.641-0.287-0.641-0.641s0.287-0.641 0.641-0.641h6.080c0.354 0 0.641 0.287 0.641 0.641s-0.287 0.641-0.641 0.641zM21.179 16.73c0.126-0.641 0.689-1.126 1.366-1.126s1.24 0.486 1.366 1.126h-2.732zM26.124 23.287c-0.973 0-1.762-0.789-1.762-1.763s0.789-1.763 1.762-1.763 1.762 0.789 1.762 1.763c0 0.974-0.789 1.763-1.762 1.763z"></path>
</symbol>
<symbol id="icon-alignment" viewBox="0 0 32 32">
<path d="M5.677 11.871h-1.032v1.032h1.032v-1.032z"></path>
<path d="M30.612 27.83c0.835-0.555 1.388-1.504 1.388-2.581v-17.032c0-1.708-1.389-3.097-3.097-3.097h-2.581c-1.708 0-3.097 1.389-3.097 3.097v6.71h-4.645c0-0.854-0.695-1.548-1.548-1.548h-1.548c-0.854 0-1.548 0.695-1.548 1.548h-5.161v-6.71c0-1.708-1.389-3.097-3.097-3.097h-2.581c-1.708 0-3.097 1.389-3.097 3.097v17.032c0 1.077 0.553 2.025 1.388 2.581h-1.388v1.032h10.839v-1.032h-3.453c0.836-0.555 1.388-1.504 1.388-2.581v-6.71h5.161c0 0.854 0.695 1.548 1.548 1.548h1.548c0.854 0 1.548-0.695 1.548-1.548h4.645v6.71c0 1.077 0.553 2.025 1.388 2.581h-8.614v1.032h16v-1.032h-1.388zM1.032 8.217c0-1.139 0.926-2.064 2.064-2.064v2.883l-2.064 2.064v-2.883zM1.032 12.559l2.064-2.064v4.218l-2.064 2.064v-4.218zM3.097 27.313c-1.139 0-2.065-0.926-2.065-2.064v-1.335l2.065-2.064v5.464zM3.097 20.39l-2.065 2.065v-4.218l2.065-2.064v4.218zM7.742 25.249c0 1.138-1.032 2.064-2.065 2.064v-5.463l2.065 2.064v1.335zM7.742 22.455l-2.065-2.064v-4.218l2.065 2.064v4.218zM7.742 16.777l-2.065-2.064v-0.819h-1.032v13.419h-0.516v-21.161h0.516v4.645h1.032v-0.302l2.065 2.064v4.218zM7.742 11.1l-2.065-2.064v-2.884c1.032 0.001 2.065 0.926 2.065 2.064v2.883zM13.935 17.507h-5.161v-1.548h5.161v1.548zM17.548 18.539c0 0.284-0.231 0.516-0.516 0.516h-1.548c-0.285 0-0.516-0.232-0.516-0.516v-3.613c0-0.284 0.231-0.516 0.516-0.516h1.548c0.285 0 0.516 0.232 0.516 0.516v3.613zM23.226 17.507h-4.645v-1.548h4.645v1.548zM30.968 22.455l-2.064-2.064v-4.218l2.064 2.064v4.218zM28.903 6.152c1.032 0.001 2.064 0.926 2.064 2.064v2.883l-2.064-2.064v-2.883zM24.258 8.217c0-1.139 0.926-2.064 2.064-2.064v2.883l-2.064 2.064v-2.883zM26.323 27.313c-1.139 0-2.064-0.926-2.064-2.064v-1.335l2.064-2.064v5.464zM26.323 20.39l-2.064 2.065v-4.218l2.064-2.064v4.218zM26.323 14.713l-2.064 2.064v-4.218l2.064-2.064v4.218zM27.871 27.313h-0.516v-21.161h0.516v6.71h1.032v-2.367l2.064 2.064v4.218l-2.064-2.064v-0.819h-1.032v13.419zM28.903 27.313v-5.463l2.064 2.064v1.335c-0 1.138-1.032 2.064-2.064 2.064z"></path>
<path d="M16.516 17.032h-1.032v1.032h1.032v-1.032z"></path>
<path d="M32 30.967h-26.839v1.032h26.839v-1.032z"></path>
<path d="M12.903 27.87h-1.032v1.032h1.032v-1.032z"></path>
<path d="M14.968 27.87h-1.032v1.032h1.032v-1.032z"></path>
<path d="M4.129 30.967h-4.129v1.032h4.129v-1.032z"></path>
<path d="M13.419 2.581h-12.903v1.032h12.903v-1.032z"></path>
<path d="M13.419 0h-5.677v1.032h5.677v-1.032z"></path>
<path d="M31.484 2.581h-6.71v1.032h6.71v-1.032z"></path>
<path d="M27.355 0h-6.71v1.032h6.71v-1.032z"></path>
<path d="M23.742 2.581h-1.032v1.032h1.032v-1.032z"></path>
<path d="M21.677 2.581h-1.032v1.032h1.032v-1.032z"></path>
</symbol>
<symbol id="icon-address" viewBox="0 0 32 32">
<path d="M31.936 31.115l-6.471-18.316c-0.065-0.274-0.34-0.477-0.614-0.477h-2.981c0.843-2.033 1.281-3.589 1.281-4.628 0-4.223-3.268-7.694-7.354-7.694-4.020 0-7.354 3.406-7.354 7.694 0 1.15 0.536 2.817 1.301 4.628h-2.595c-0.275 0-0.543 0.203-0.614 0.477l-6.471 18.316c-0.209 0.673 0.412 0.882 0.614 0.882h30.645c0.275 0.033 0.817-0.275 0.614-0.882zM15.797 1.353c3.334 0 5.994 2.857 5.994 6.334 0 3.693-5.177 11.917-5.994 13.276-2.046-3.471-5.994-10.557-5.994-13.276 0-3.471 2.654-6.334 5.994-6.334zM1.631 30.638l5.994-16.956h2.726c1.954 4.19 5.445 9.871 5.445 9.871s5.321-9.524 5.478-9.871h3.099l5.994 16.956h-28.736z"></path>
<path d="M20.497 24.781h-8.923v1.36h8.923v-1.36z"></path>
<path d="M18.928 7.073c0-1.7-1.432-3.131-3.131-3.131s-3.131 1.432-3.131 3.131c0 1.7 1.36 3.131 3.131 3.131s3.131-1.425 3.131-3.131zM14.025 7.007c0-0.954 0.752-1.771 1.771-1.771s1.772 0.817 1.772 1.771-0.752 1.772-1.772 1.772c-0.954 0-1.771-0.817-1.771-1.772z"></path>
</symbol>
<symbol id="icon-location" viewBox="0 0 32 32">
<path d="M16 0c-6.674 0-12.104 5.43-12.104 12.104 0 2.753 1.898 6.779 5.64 11.966 2.706 3.75 5.368 6.713 5.48 6.837l0.985 1.093 0.985-1.093c0.112-0.124 2.774-3.087 5.48-6.837 3.743-5.187 5.64-9.213 5.64-11.966 0-6.674-5.43-12.104-12.105-12.104zM16 28.009c-3.334-3.898-9.454-11.883-9.454-15.904 0-5.213 4.241-9.453 9.454-9.453s9.453 4.241 9.453 9.453c0 4.021-6.119 12.006-9.453 15.904z"></path>
<path d="M16 16.496c2.425 0 4.391-1.966 4.391-4.391s-1.966-4.391-4.391-4.391c-2.425 0-4.391 1.966-4.391 4.391s1.966 4.391 4.391 4.391z"></path>
</symbol>
<symbol id="icon-phone" viewBox="0 0 32 32">
<path d="M28.172 21.469c-1.53-1.23-2.933-1.827-4.29-1.827-1.963 0-3.377 1.249-4.657 2.528-0.147 0.147-0.325 0.216-0.561 0.216-1.078 0-2.976-1.35-5.639-4.014-3.133-3.133-4.318-5.126-3.521-5.923 2.159-2.159 2.833-4.323-0.473-8.434-1.184-1.473-2.342-2.189-3.54-2.189-1.616 0-2.845 1.292-3.929 2.432-0.187 0.197-0.364 0.383-0.538 0.557-1.225 1.225-1.225 3.897 0.002 7.149 1.346 3.567 4.002 7.448 7.481 10.927 2.69 2.69 5.617 4.864 8.465 6.324 2.486 1.274 4.898 1.957 6.791 1.957 0 0 0 0 0.001 0 1.184 0 2.147-0.258 2.782-0.784 1.291-1.067 3.693-3.044 3.677-5.392-0.009-1.259-0.699-2.44-2.051-3.527z"></path>
</symbol>
<symbol id="icon-viber" viewBox="0 0 32 32">
<path d="M26.315 3.947c-0.753-0.686-3.804-2.893-10.597-2.922 0 0-8.016-0.477-11.921 3.088-2.172 2.161-2.933 5.327-3.020 9.253s-0.185 11.284 6.943 13.284h0.006l-0.006 3.047c0 0-0.047 1.234 0.768 1.482 0.985 0.307 1.567-0.632 2.51-1.642 0.516-0.555 1.228-1.369 1.768-1.99 0.759 0.074 1.64 0.116 2.533 0.116 2.313 0 4.559-0.283 6.706-0.818l-0.19 0.040c0.985-0.319 6.557-1.028 7.458-8.385 0.942-7.595-0.448-12.386-2.958-14.554zM27.14 17.947c-0.768 6.14-5.282 6.531-6.113 6.795-1.813 0.458-3.894 0.721-6.037 0.721-0.615 0-1.225-0.021-1.829-0.064l0.081 0.005c0 0-3.086 3.702-4.047 4.664-0.314 0.312-0.659 0.287-0.653-0.336 0-0.407 0.024-5.061 0.024-5.061-6.034-1.665-5.685-7.933-5.614-11.206s0.689-5.964 2.528-7.77c3.306-2.981 10.112-2.539 10.112-2.539 5.751 0.024 8.504 1.748 9.144 2.326 2.119 1.807 3.199 6.13 2.403 12.464v0.001zM18.899 13.176v0.018c0 0.212-0.172 0.383-0.385 0.383-0.206 0-0.375-0.161-0.384-0.364v-0.001c0.005-0.053 0.009-0.116 0.009-0.178 0-1.009-0.821-1.826-1.835-1.826-0.038 0-0.076 0.001-0.113 0.004h0.005c-0.204-0.011-0.365-0.178-0.365-0.382 0-0.212 0.172-0.383 0.385-0.383h0.020c0.025-0.001 0.057-0.001 0.087-0.001 1.425 0 2.58 1.149 2.58 2.567 0 0.058-0.003 0.116-0.006 0.173v-0.008l0.001-0.001zM20.102 13.845c0.059-2.504-1.513-4.464-4.497-4.683-0.201-0.014-0.358-0.18-0.358-0.382 0-0.212 0.172-0.383 0.385-0.383 0.009 0 0.019 0 0.028 0.001h0.020c2.87 0 5.197 2.315 5.197 5.172 0 0.102-0.003 0.204-0.009 0.305l0.001-0.014c-0.005 0.208-0.175 0.373-0.384 0.373-0.213 0-0.385-0.171-0.385-0.383 0-0.004 0-0.006 0-0.010l0.001 0.004zM22.887 14.637v0.003c0 0.212-0.172 0.383-0.385 0.383s-0.382-0.17-0.384-0.379c-0.030-4.814-3.257-7.435-7.167-7.463-0.213 0-0.384-0.171-0.384-0.382s0.172-0.382 0.384-0.382c4.378 0.030 7.897 3.037 7.933 8.218l0.003 0.001zM22.222 20.428v0.011c-0.64 1.122-1.839 2.362-3.073 1.966l-0.011-0.018c-2.319-0.861-4.324-1.988-6.115-3.374l0.052 0.038c-0.941-0.746-1.767-1.568-2.492-2.472l-0.024-0.032c-0.644-0.804-1.248-1.703-1.775-2.653l-0.051-0.1c-0.578-0.94-1.101-2.025-1.51-3.165l-0.038-0.123c-0.397-1.228 0.842-2.421 1.976-3.058h0.011c0.165-0.105 0.365-0.168 0.58-0.168 0.338 0 0.639 0.155 0.838 0.396l0.001 0.003c0 0 0.735 0.873 1.051 1.305 0.296 0.402 0.695 1.045 0.901 1.404 0.119 0.185 0.189 0.412 0.189 0.655 0 0.363-0.157 0.689-0.408 0.914l-0.001 0.001-0.711 0.567c-0.196 0.189-0.318 0.453-0.318 0.746 0 0.029 0.001 0.057 0.004 0.084v-0.004c0.733 2.397 2.592 4.247 4.949 4.964l0.053 0.014c0.024 0.003 0.053 0.004 0.081 0.004 0.294 0 0.559-0.121 0.749-0.315l0.57-0.708c0.228-0.251 0.556-0.407 0.92-0.407 0.244 0 0.471 0.071 0.663 0.192l-0.005-0.003c1.029 0.583 1.919 1.224 2.73 1.951l-0.014-0.012c0.243 0.194 0.396 0.49 0.396 0.821 0 0.213-0.063 0.411-0.173 0.577l0.003-0.004 0.003 0.003z"></path>
</symbol>
<symbol id="icon-telegram" viewBox="0 0 32 32">
<path d="M26.198 5.501l-22.396 8.636c-1.528 0.614-1.52 1.467-0.28 1.847l5.75 1.794 13.304-8.394c0.629-0.383 1.204-0.177 0.731 0.243l-10.778 9.729-0.397 5.927c0.581 0 0.837-0.267 1.163-0.581l2.793-2.716 5.809 4.291c1.071 0.59 1.84 0.287 2.107-0.991l3.814-17.972c0.39-1.565-0.598-2.274-1.619-1.811z"></path>
</symbol>
</defs>
</svg>
